<svg width="41" height="41" viewBox="0 0 41 41" fill="none" xmlns="http://www.w3.org/2000/svg">
<path fill-rule="evenodd" clip-rule="evenodd" d="M13.7542 5.83898C13.4198 5.94761 13.094 6.08133 12.7797 6.23898C11.9797 6.63171 11.1785 7.42443 10.8088 8.18928C10.6003 8.60989 10.147 10.125 9.83424 11.422C9.79909 11.5553 10.0573 11.3311 10.7809 10.6087C12.2161 9.16383 13.5809 8.24504 15.3421 7.52262C16.13 7.20019 17.6694 6.76504 18.3361 6.67413C18.5397 6.64504 18.6924 6.6111 18.6718 6.59656C18.1921 6.44591 17.7091 6.30568 17.2233 6.17595C15.9555 5.83171 15.7191 5.78928 14.9736 5.7614C14.3748 5.7408 14.027 5.7614 13.7555 5.83898H13.7542ZM15.2173 8.89716C16.5486 8.25682 17.9814 7.85321 19.4512 7.70443C22.3932 7.42625 25.3403 8.18049 27.787 9.83777C30.6148 11.7444 32.467 14.5784 33.1639 18.0438C33.3445 18.9481 33.3445 21.6281 33.1639 22.5323C32.467 25.9978 30.6148 28.8317 27.787 30.7384C25.9584 31.9839 23.8344 32.7265 21.6281 32.8916C19.4218 33.0567 17.2109 32.6385 15.2173 31.679C13.3418 30.7885 11.7154 29.4486 10.4824 27.7782C9.24937 26.1079 8.44798 24.159 8.14939 22.1044C8.01606 21.2075 8.01606 19.3687 8.14939 18.4717C8.44769 16.4169 9.24895 14.4677 10.482 12.7971C11.715 11.1266 13.3416 9.78769 15.2173 8.89716ZM20.5445 15.519C21.0391 13.5893 19.7652 11.5481 17.8076 11.142C16.6027 10.8887 15.4476 11.2463 14.5494 12.1444C13.1276 13.5747 13.1215 15.7432 14.5276 17.1602C16.4852 19.1311 19.8488 18.2123 20.5445 15.519ZM27.0076 12.9226C28.6233 13.3444 29.7021 14.719 29.7021 16.3529C29.7021 17.4123 29.4027 18.1699 28.6924 18.8863C28.2052 19.3759 27.6136 19.7129 26.9797 19.8681C26.1021 20.0705 25.3639 19.9796 24.507 19.5517C23.1142 18.8644 22.313 17.2511 22.6197 15.7578C22.7797 14.9711 23.0439 14.4729 23.6088 13.8984C24.3397 13.1614 25.0924 12.839 26.1155 12.8244C26.387 12.8184 26.7918 12.8669 27.0076 12.9226ZM22.1809 20.3299C22.1809 19.7687 21.8536 19.2572 21.3252 18.9844C20.0161 18.3032 18.5809 19.6705 19.1942 21.0244C19.3821 21.445 19.507 21.5784 19.9179 21.7687C21.0112 22.2875 22.1809 21.5432 22.1809 20.3299ZM15.9203 20.6741C16.13 20.7093 16.5542 20.8705 16.8609 21.0244C18.2536 21.7117 19.0548 23.325 18.7482 24.8184C18.5882 25.605 18.3239 26.1032 17.7591 26.6778C16.6173 27.8353 15.0221 28.0875 13.5603 27.3444C11.6864 26.3905 11.067 23.9141 12.2645 22.1602C13.0645 21.0038 14.507 20.4147 15.9203 20.6741ZM27.8148 26.6499C28.1979 24.805 27.0355 22.9469 25.2039 22.4693C24.5981 22.3163 23.963 22.3226 23.3603 22.4874C22.7576 22.6522 22.2077 22.97 21.7639 23.4099C21.4311 23.7421 21.1673 24.1369 20.988 24.5717C20.8087 25.0064 20.7174 25.4724 20.7193 25.9427C20.7212 26.4129 20.8163 26.8782 20.9992 27.3114C21.182 27.7447 21.449 28.1374 21.7845 28.4669C22.8633 29.5541 24.4997 29.8123 25.9421 29.1117C26.7845 28.7056 27.6136 27.6111 27.8148 26.6499ZM29.3906 9.64746C29.2161 9.5214 29.0767 9.39534 29.0767 9.36746C29.0767 9.33837 29.2852 9.3808 29.5494 9.4511C29.8076 9.5214 30.5191 9.71049 31.1312 9.87171C32.6221 10.2584 33.2476 10.5735 33.9518 11.2681C34.3772 11.684 34.7138 12.182 34.9411 12.7318C35.1684 13.2817 35.2817 13.8719 35.2742 14.4669C35.2742 15.0208 35.2185 15.3081 34.8294 16.8087C34.6784 17.391 34.518 17.9709 34.3482 18.5481C34.3276 18.5626 34.2791 18.3456 34.2294 18.0644C33.9445 16.2414 33.1506 14.2281 32.1409 12.719C31.4027 11.6038 30.1858 10.2511 29.3906 9.64746ZM6.86091 22.519C6.86091 22.5469 6.68636 23.2196 6.47788 24.0196C6.15061 25.2753 6.09485 25.5626 6.09485 26.1105C6.09485 27.3517 6.54697 28.4378 7.41121 29.3008C8.15545 30.0378 8.65727 30.2826 10.4961 30.7747C11.3106 30.9917 11.993 31.1602 12.0064 31.1529C12.0209 31.1396 11.9445 31.056 11.833 30.9711C11.4427 30.6681 10.1821 29.4002 9.76394 28.8802C8.49121 27.302 7.50091 25.2123 7.06939 23.2269C6.94455 22.6305 6.86091 22.3578 6.86091 22.519ZM30.427 29.9747C30.7748 29.6172 31.1858 29.1614 31.3385 28.9566C31.4924 28.7614 31.6245 28.6208 31.6379 28.6559C31.6658 28.7408 30.9215 31.525 30.7409 31.9953C30.3918 32.9493 29.5348 33.8681 28.5736 34.3444C27.2718 34.9893 26.4088 35.0038 24.2706 34.4293C22.6536 33.9953 22.6548 33.9929 22.6827 33.9663C22.9296 33.8933 23.1806 33.8346 23.4342 33.7905C26.0869 33.2263 28.5172 31.9002 30.427 29.9747Z" fill="#A1A3A8"/>
</svg>
