<svg width="29" height="21" viewBox="0 0 29 21" fill="none" xmlns="http://www.w3.org/2000/svg">
<path fill-rule="evenodd" clip-rule="evenodd" d="M18.94 4.36345C18.464 2.97345 16.5927 1.95679 14.39 1.95679C12.1803 1.95679 10.302 2.98012 9.83532 4.37845L9.82832 4.36679L9.51332 4.48012C7.42004 5.2641 5.7583 6.52962 4.79695 8.07193C3.83561 9.61425 3.6309 11.3431 4.21594 12.9789C4.80098 14.6146 6.14155 16.0615 8.02076 17.0855C9.89996 18.1094 12.2079 18.6506 14.5711 18.6213C16.9343 18.5921 19.2146 17.9941 21.043 16.9243C22.8714 15.8544 24.141 14.3752 24.6464 12.726C25.1517 11.0768 24.8633 9.354 23.8277 7.8364C22.7922 6.31881 21.07 5.09516 18.94 4.36345ZM18.737 6.28429L18.7767 6.20179C20.2671 6.88009 21.4092 7.88542 22.0316 9.06684C22.654 10.2483 22.7231 11.542 22.2286 12.7539C21.734 13.9657 20.7024 15.0303 19.2887 15.7878C17.875 16.5452 16.1555 16.9547 14.3882 16.9547C12.621 16.9547 10.9015 16.5452 9.48777 15.7878C8.07407 15.0303 7.04249 13.9657 6.54791 12.7539C6.05333 11.542 6.12244 10.2483 6.74486 9.06684C7.36728 7.88542 8.50943 6.88009 9.99982 6.20179C10.1282 6.46179 10.295 6.71595 10.5015 6.96512C9.25285 7.56108 8.30564 8.42806 7.79974 9.43803C7.29383 10.448 7.25606 11.5474 7.69201 12.5739C8.12795 13.6004 9.01449 14.4995 10.2207 15.1385C11.4269 15.7775 12.8888 16.1224 14.3906 16.1224C15.8923 16.1224 17.3542 15.7775 18.5604 15.1385C19.7667 14.4995 20.6532 13.6004 21.0891 12.5739C21.5251 11.5474 21.4873 10.448 20.9814 9.43803C20.4755 8.42806 19.5283 7.56108 18.2797 6.96512C18.4628 6.74262 18.6168 6.51512 18.737 6.28429ZM16.8178 8.27595C17.6872 8.65406 18.3597 9.22484 18.7328 9.9013C19.1059 10.5778 19.1591 11.3228 18.8844 12.0229C18.6096 12.723 18.0219 13.3397 17.2109 13.779C16.3999 14.2184 15.41 14.4562 14.3921 14.4564C13.3742 14.4566 12.3841 14.219 11.5728 13.78C10.7615 13.3409 10.1734 12.7244 9.89813 12.0244C9.62289 11.3244 9.6756 10.5794 10.0482 9.90279C10.4209 9.2262 11.093 8.65519 11.9622 8.27679C12.51 8.67044 13.1137 9.02233 13.7635 9.32679L14.39 9.61095L15.0165 9.32679C15.6667 9.02236 16.2707 8.67047 16.819 8.27679L16.8178 8.27595ZM12.0567 5.05929C12.0567 4.28345 13.0752 3.62345 14.39 3.62345C15.7048 3.62345 16.7233 4.28345 16.7233 5.05845C16.7233 5.66262 16.2053 6.33595 15.3023 7.00095C15.1104 7.14238 14.9099 7.27779 14.7015 7.40679L14.39 7.59179L14.0785 7.40679C13.8701 7.27779 13.6696 7.14238 13.4777 7.00095C12.5747 6.33595 12.0567 5.66262 12.0567 5.05929Z" fill="#00BFD6"/>
</svg>
