<svg width="29" height="21" viewBox="0 0 29 21" fill="none" xmlns="http://www.w3.org/2000/svg">
<path fill-rule="evenodd" clip-rule="evenodd" d="M12.5667 3.62329H24.2333C25.1616 3.62329 26.0518 3.88668 26.7082 4.35552C27.3646 4.82437 27.7333 5.46025 27.7333 6.12329V14.4566C27.7333 15.1197 27.3646 15.7556 26.7082 16.2244C26.0518 16.6932 25.1616 16.9566 24.2333 16.9566H12.5667C12.2573 16.9566 11.9605 16.8688 11.7417 16.7125C11.5229 16.5563 11.4 16.3443 11.4 16.1233C11.4 15.9023 11.2771 15.6903 11.0583 15.534C10.8395 15.3778 10.5428 15.29 10.2333 15.29C9.92393 15.29 9.62718 15.3778 9.40839 15.534C9.1896 15.6903 9.06668 15.9023 9.06668 16.1233C9.06668 16.3443 8.94376 16.5563 8.72497 16.7125C8.50618 16.8688 8.20943 16.9566 7.90001 16.9566H5.56668C4.63842 16.9566 3.74818 16.6932 3.09181 16.2244C2.43543 15.7556 2.06668 15.1197 2.06668 14.4566V6.12329C2.06668 5.46025 2.43543 4.82437 3.09181 4.35552C3.74818 3.88668 4.63842 3.62329 5.56668 3.62329H7.90001C8.20943 3.62329 8.50618 3.71109 8.72497 3.86737C8.94376 4.02365 9.06668 4.23561 9.06668 4.45662C9.06668 4.67764 9.1896 4.8896 9.40839 5.04588C9.62718 5.20216 9.92393 5.28996 10.2333 5.28996C10.5428 5.28996 10.8395 5.20216 11.0583 5.04588C11.2771 4.8896 11.4 4.67764 11.4 4.45662C11.4 4.23561 11.5229 4.02365 11.7417 3.86737C11.9605 3.71109 12.2573 3.62329 12.5667 3.62329ZM10.2333 6.95662C9.50929 6.95677 8.80298 6.79658 8.21169 6.49809C7.62039 6.19961 7.17319 5.77752 6.93168 5.28996H5.56668C5.25726 5.28996 4.96052 5.37776 4.74172 5.53404C4.52293 5.69032 4.40001 5.90228 4.40001 6.12329V14.4566C4.40001 14.6776 4.52293 14.8896 4.74172 15.0459C4.96052 15.2022 5.25726 15.29 5.56668 15.29H6.93168C7.17272 14.802 7.61971 14.3795 8.21105 14.0806C8.80238 13.7817 9.50895 13.6212 10.2333 13.6212C10.9577 13.6212 11.6643 13.7817 12.2556 14.0806C12.847 14.3795 13.294 14.802 13.535 15.29H24.2333C24.5428 15.29 24.8395 15.2022 25.0583 15.0459C25.2771 14.8896 25.4 14.6776 25.4 14.4566V6.12329C25.4 5.90228 25.2771 5.69032 25.0583 5.53404C24.8395 5.37776 24.5428 5.28996 24.2333 5.28996H13.535C13.2935 5.77752 12.8463 6.19961 12.255 6.49809C11.6637 6.79658 10.9574 6.95677 10.2333 6.95662ZM16.65 8.62329C17.1141 8.62329 17.5593 8.49159 17.8874 8.25717C18.2156 8.02275 18.4 7.70481 18.4 7.37329C18.4 7.04177 18.2156 6.72383 17.8874 6.48941C17.5593 6.25499 17.1141 6.12329 16.65 6.12329C16.1859 6.12329 15.7408 6.25499 15.4126 6.48941C15.0844 6.72383 14.9 7.04177 14.9 7.37329C14.9 7.70481 15.0844 8.02275 15.4126 8.25717C15.7408 8.49159 16.1859 8.62329 16.65 8.62329ZM23.0667 13.2066C23.0667 13.5381 22.8823 13.8561 22.5541 14.0905C22.2259 14.3249 21.7808 14.4566 21.3167 14.4566C20.8525 14.4566 20.4074 14.3249 20.0792 14.0905C19.7511 13.8561 19.5667 13.5381 19.5667 13.2066C19.5667 12.8751 19.7511 12.5572 20.0792 12.3227C20.4074 12.0883 20.8525 11.9566 21.3167 11.9566C21.7808 11.9566 22.2259 12.0883 22.5541 12.3227C22.8823 12.5572 23.0667 12.8751 23.0667 13.2066ZM15.0773 13.1816L17.056 14.065L22.8893 7.39829L20.9107 6.51496L15.0773 13.1816ZM9.06668 12.79V11.1233H11.4V12.79H9.06668ZM9.06668 7.78996V9.45662H11.4V7.78996H9.06668Z" fill="#00BFD6"/>
</svg>
