<svg width="29" height="21" viewBox="0 0 29 21" fill="none" xmlns="http://www.w3.org/2000/svg">
<path fill-rule="evenodd" clip-rule="evenodd" d="M22.3597 1.86332L22.3667 1.95832V4.45832H25.8667C26.8152 4.45832 27.332 5.20665 26.856 5.73665L26.7802 5.81082L26.6915 5.88082L23.1915 8.38082C23.01 8.51033 22.7738 8.59352 22.5195 8.61748L22.3667 8.62498H18.183L13.8582 11.7142C13.6482 11.8636 13.3665 11.9504 13.0702 11.9568C12.7739 11.9633 12.4853 11.889 12.263 11.7489C12.0407 11.6089 11.9013 11.4137 11.8732 11.2029C11.8451 10.9922 11.9304 10.7816 12.1117 10.6142L12.2085 10.5358L16.5333 7.44498V4.45832C16.5333 4.27515 16.6178 4.09708 16.7737 3.95165L16.8752 3.86832L20.3752 1.36832C21.046 0.889985 22.152 1.15832 22.3398 1.77332L22.3597 1.86332ZM14.7845 3.72915C12.5891 3.46419 10.3325 3.70458 8.34087 4.41562C6.34922 5.12665 4.72556 6.2715 3.70445 7.6848C2.68334 9.09809 2.31764 10.7067 2.66017 12.2781C3.0027 13.8496 4.03574 15.3026 5.61005 16.4273C7.18436 17.5519 9.21844 18.29 11.4185 18.5349C13.6185 18.7798 15.8705 18.5188 17.8493 17.7896C19.828 17.0604 21.431 15.9008 22.4267 14.4783C23.4225 13.0558 23.7593 11.444 23.3887 9.87582L21.0122 9.87498C21.3902 11.1069 21.1991 12.3931 20.4675 13.5409C19.7359 14.6887 18.5033 15.6362 16.9544 16.2415C15.4054 16.8468 13.6235 17.0772 11.8758 16.8982C10.1281 16.7192 8.50863 16.1404 7.26016 15.2487C6.0117 14.3569 5.20146 13.2002 4.95087 11.9518C4.70028 10.7034 5.02285 9.43066 5.87023 8.32425C6.7176 7.21785 8.04415 6.3374 9.65105 5.81486C11.258 5.29231 13.0587 5.15581 14.7833 5.42582V3.72915H14.7845ZM14.5453 7.09998C13.3681 6.87432 12.1215 6.91772 10.9805 7.2241C9.83962 7.53049 8.86172 8.08445 8.1842 8.8082C7.50667 9.53194 7.16356 10.3891 7.20306 11.2593C7.24256 12.1295 7.66269 12.9689 8.40443 13.6598C9.14616 14.3507 10.1722 14.8582 11.3386 15.1112C12.5049 15.3641 13.7528 15.3498 14.9071 15.0701C16.0614 14.7904 17.0641 14.2595 17.7742 13.5519C18.4844 12.8443 18.8665 11.9956 18.8667 11.125L18.855 10.8692C18.8339 10.6162 18.7804 10.3651 18.6952 10.1192L18.6672 10.0467L16.4645 11.6217C16.3389 12.0648 16.0474 12.4754 15.621 12.8097C15.1947 13.1439 14.6495 13.3893 14.0433 13.5198C13.4372 13.6503 12.7929 13.661 12.179 13.5507C11.5651 13.4404 11.0045 13.2133 10.5569 12.8935C10.1093 12.5737 9.79153 12.1732 9.63729 11.7347C9.48306 11.2961 9.49818 10.8359 9.68104 10.403C9.86389 9.97011 10.2077 9.58072 10.6757 9.27629C11.1438 8.97185 11.7187 8.76375 12.3392 8.67415L14.5453 7.09998ZM18.8667 4.80332L20.0333 3.96998V5.29165L20.0415 5.38915L20.0648 5.48248C20.125 5.66527 20.2699 5.82817 20.4759 5.94479C20.682 6.06141 20.9371 6.1249 21.2 6.12498H23.048L21.8813 6.95832H18.8667V4.80332Z" fill="#00BFD6"/>
</svg>
