<svg width="25" height="25" viewBox="0 0 25 25" fill="none" xmlns="http://www.w3.org/2000/svg">
<path d="M7.45685 7.36441L4.78997 4.69753L6.14741 3.34009L8.81429 6.00697L7.45685 7.36441Z" fill="#F9BC00"/>
<path fill-rule="evenodd" clip-rule="evenodd" d="M14.3871 5.90809L15.374 8.94361H18.566C20.5186 8.94361 21.3308 11.4425 19.7506 12.5907L17.1682 14.4665L18.1551 17.503C18.758 19.3596 16.6325 20.9043 15.0524 19.7561L12.47 17.8803L9.88757 19.7561C8.30741 20.9043 6.18197 19.3596 6.78485 17.502L7.77173 14.4665L5.18933 12.5907C3.60917 11.4425 4.42133 8.94361 6.37397 8.94265H9.56597L10.5529 5.90809C11.1567 4.05049 13.7832 4.05049 14.3871 5.90809ZM10.8917 10.8636C10.9121 10.8635 10.9319 10.857 10.9483 10.8449C10.9647 10.8328 10.9768 10.8158 10.9829 10.7964L12.3788 6.50137C12.3851 6.48217 12.3973 6.46544 12.4137 6.45359C12.4301 6.44173 12.4498 6.43535 12.47 6.43535C12.4902 6.43535 12.5099 6.44173 12.5263 6.45359C12.5426 6.46544 12.5549 6.48217 12.5612 6.50137L13.957 10.7974C13.9633 10.8166 13.9755 10.8334 13.9919 10.8453C14.0082 10.8572 14.028 10.8636 14.0482 10.8636H18.566C18.586 10.864 18.6053 10.8706 18.6214 10.8826C18.6374 10.8945 18.6493 10.9111 18.6554 10.9302C18.6616 10.9492 18.6616 10.9696 18.6556 10.9887C18.6495 11.0077 18.6376 11.0244 18.6217 11.0364L14.9679 13.6927C14.9517 13.7046 14.9397 13.7213 14.9335 13.7404C14.9273 13.7596 14.9272 13.7801 14.9333 13.7993L16.3282 18.0963C16.334 18.1154 16.3337 18.1358 16.3274 18.1547C16.321 18.1737 16.3089 18.1901 16.2927 18.2018C16.2766 18.2136 16.2571 18.22 16.2372 18.2201C16.2172 18.2203 16.1977 18.2143 16.1813 18.2028L12.5266 15.5484C12.5102 15.5364 12.4903 15.5299 12.47 15.5299C12.4496 15.5299 12.4298 15.5364 12.4133 15.5484L8.75861 18.2028C8.74225 18.2143 8.72272 18.2203 8.70276 18.2201C8.68279 18.22 8.66338 18.2136 8.64721 18.2018C8.63105 18.1901 8.61895 18.1737 8.61259 18.1547C8.60623 18.1358 8.60593 18.1154 8.61173 18.0963L10.0066 13.7993C10.0127 13.7801 10.0127 13.7596 10.0065 13.7404C10.0003 13.7213 9.98824 13.7046 9.97205 13.6927L6.31829 11.0374C6.3019 11.0255 6.28968 11.0088 6.28337 10.9895C6.27706 10.9703 6.27699 10.9496 6.28316 10.9303C6.28934 10.911 6.30144 10.8942 6.31775 10.8822C6.33406 10.8703 6.35374 10.8637 6.37397 10.8636H10.8917Z" fill="#F9BC00"/>
<path d="M18.8703 16.0543L22.07 18.1874L23.1356 16.59L19.9349 14.4559L18.8703 16.0543ZM6.06965 16.0543L2.86997 18.1874L1.80437 16.59L5.00501 14.4559L6.06965 16.0543ZM11.51 20.6201V23.5001H13.43V20.6201H11.51ZM17.9343 7.36441L20.6012 4.69753L19.2437 3.34009L16.5768 6.00697L17.9343 7.36441Z" fill="#F9BC00"/>
</svg>
