<svg width="24" height="25" viewBox="0 0 24 25" fill="none" xmlns="http://www.w3.org/2000/svg">
<path fill-rule="evenodd" clip-rule="evenodd" d="M21.99 4.34009C22.2552 4.34009 22.5096 4.44544 22.6971 4.63298C22.8846 4.82052 22.99 5.07487 22.99 5.34009V19.3401C22.99 19.6053 22.8846 19.8597 22.6971 20.0472C22.5096 20.2347 22.2552 20.3401 21.99 20.3401H5.98999C5.7248 20.34 5.47048 20.2346 5.28299 20.0471L1.28299 16.0471C1.09544 15.8596 0.990047 15.6053 0.98999 15.3401V9.34009C0.990047 9.07489 1.09544 8.82058 1.28299 8.63309L5.28299 4.63309C5.47048 4.44554 5.7248 4.34014 5.98999 4.34009H21.99ZM20.99 6.34009H6.40399L2.98999 9.75409V14.9261L6.40399 18.3401H20.99V6.34009ZM14.99 9.84009C14.99 10.2379 14.832 10.6194 14.5507 10.9007C14.2693 11.1821 13.8878 11.3401 13.49 11.3401C13.0922 11.3401 12.7106 11.1821 12.4293 10.9007C12.148 10.6194 11.99 10.2379 11.99 9.84009C11.99 9.44226 12.148 9.06073 12.4293 8.77943C12.7106 8.49812 13.0922 8.34009 13.49 8.34009C13.8878 8.34009 14.2693 8.49812 14.5507 8.77943C14.832 9.06073 14.99 9.44226 14.99 9.84009ZM17.49 16.3401C17.8878 16.3401 18.2693 16.1821 18.5506 15.9007C18.832 15.6194 18.99 15.2379 18.99 14.8401C18.99 14.4423 18.832 14.0607 18.5506 13.7794C18.2693 13.4981 17.8878 13.3401 17.49 13.3401C17.0922 13.3401 16.7106 13.4981 16.4293 13.7794C16.148 14.0607 15.99 14.4423 15.99 14.8401C15.99 15.2379 16.148 15.6194 16.4293 15.9007C16.7106 16.1821 17.0922 16.3401 17.49 16.3401ZM9.98999 12.3401C9.98999 12.7341 9.91239 13.1242 9.76163 13.4881C9.61086 13.8521 9.38989 14.1828 9.11131 14.4614C8.83274 14.74 8.50202 14.961 8.13804 15.1117C7.77406 15.2625 7.38396 15.3401 6.98999 15.3401C6.59602 15.3401 6.20592 15.2625 5.84194 15.1117C5.47796 14.961 5.14725 14.74 4.86867 14.4614C4.59009 14.1828 4.36912 13.8521 4.21835 13.4881C4.06759 13.1242 3.98999 12.7341 3.98999 12.3401C3.98999 11.5444 4.30606 10.7814 4.86867 10.2188C5.43128 9.65616 6.19434 9.34009 6.98999 9.34009C7.78564 9.34009 8.5487 9.65616 9.11131 10.2188C9.67392 10.7814 9.98999 11.5444 9.98999 12.3401ZM5.98999 12.3401C5.98999 12.6053 6.09535 12.8597 6.28288 13.0472C6.47042 13.2347 6.72477 13.3401 6.98999 13.3401C7.25521 13.3401 7.50956 13.2347 7.6971 13.0472C7.88463 12.8597 7.98999 12.6053 7.98999 12.3401C7.98999 12.0749 7.88463 11.8205 7.6971 11.633C7.50956 11.4454 7.25521 11.3401 6.98999 11.3401C6.72477 11.3401 6.47042 11.4454 6.28288 11.633C6.09535 11.8205 5.98999 12.0749 5.98999 12.3401ZM18.838 8.87009L13.838 16.8701L12.142 15.8101L17.142 7.81009L18.838 8.87009Z" fill="#EF4056"/>
</svg>
