<svg width="41" height="41" viewBox="0 0 41 41" fill="none" xmlns="http://www.w3.org/2000/svg">
<path fill-rule="evenodd" clip-rule="evenodd" d="M27.6517 5.2998H14.2083C12.0136 5.30245 9.9095 6.17548 8.35758 7.7274C6.80567 9.27931 5.93264 11.3834 5.92999 13.5781V27.0215C5.93264 29.2162 6.80567 31.3203 8.35758 32.8722C9.9095 34.4241 12.0136 35.2972 14.2083 35.2998H27.6517C29.8464 35.2972 31.9505 34.4241 33.5024 32.8722C35.0543 31.3203 35.9273 29.2162 35.93 27.0215V13.5781C35.9273 11.3834 35.0543 9.27931 33.5024 7.7274C31.9505 6.17548 29.8464 5.30245 27.6517 5.2998ZM33.2683 27.0215C33.2666 28.5106 32.6742 29.9382 31.6213 30.9911C30.5683 32.0441 29.1408 32.6364 27.6517 32.6381H14.2083C12.7192 32.6364 11.2916 32.0441 10.2387 30.9911C9.18574 29.9382 8.59342 28.5106 8.59166 27.0215V13.5781C8.59342 12.089 9.18574 10.6615 10.2387 9.6085C11.2916 8.55556 12.7192 7.96324 14.2083 7.96147H27.6517C29.1408 7.96324 30.5683 8.55556 31.6213 9.6085C32.6742 10.6615 33.2666 12.089 33.2683 13.5781V27.0215ZM13.2 20.2998C13.2022 18.2504 14.0173 16.2855 15.4665 14.8363C16.9157 13.3871 18.8805 12.572 20.93 12.5698C22.9794 12.572 24.9443 13.3871 26.3935 14.8363C27.8427 16.2855 28.6578 18.2504 28.66 20.2998C28.6578 22.3493 27.8427 24.3141 26.3935 25.7633C24.9443 27.2125 22.9794 28.0276 20.93 28.0298C18.8805 28.0276 16.9157 27.2125 15.4665 25.7633C14.0173 24.3141 13.2022 22.3493 13.2 20.2998ZM20.93 25.3681C19.5865 25.3668 18.2984 24.8326 17.3482 23.8828C16.398 22.9329 15.8634 21.645 15.8617 20.3015C15.8625 18.9572 16.3967 17.6682 17.3469 16.7174C18.2971 15.7666 19.5858 15.2316 20.93 15.2298C22.2739 15.2316 23.5623 15.7663 24.5125 16.7168C25.4626 17.6673 25.997 18.9559 25.9983 20.2998C25.997 21.6436 25.4626 22.932 24.5124 23.8822C23.5622 24.8324 22.2738 25.3668 20.93 25.3681ZM27.605 10.8848C27.9683 10.5198 28.4717 10.3131 28.985 10.3131C29.4983 10.3131 30.0017 10.5198 30.365 10.8848C30.7289 11.2519 30.9332 11.7479 30.9332 12.2648C30.9332 12.7817 30.7289 13.2777 30.365 13.6448C30.0017 14.0081 29.4983 14.2165 28.985 14.2165C28.4677 14.2148 27.9719 14.0094 27.605 13.6448C27.2404 13.2779 27.035 12.7821 27.0333 12.2648C27.0333 11.7498 27.2417 11.2465 27.605 10.8848Z" fill="#A1A3A8"/>
</svg>
