<svg width="41" height="41" viewBox="0 0 41 41" fill="none" xmlns="http://www.w3.org/2000/svg">
<path fill-rule="evenodd" clip-rule="evenodd" d="M8.92999 5.2998H32.93C34.58 5.2998 35.93 6.6498 35.93 8.2998V32.2998C35.93 33.9498 34.58 35.2998 32.93 35.2998H8.92999C7.27999 35.2998 5.92999 33.9498 5.92999 32.2998V8.2998C5.92999 6.6498 7.27999 5.2998 8.92999 5.2998ZM10.43 30.7998H14.93V17.2998H10.43V30.7998ZM12.68 14.7498C11.18 14.7498 9.97999 13.5498 9.97999 12.0498C9.97999 10.5498 11.18 9.3498 12.68 9.3498C14.18 9.3498 15.38 10.5498 15.38 12.0498C15.38 13.5498 14.18 14.7498 12.68 14.7498ZM26.93 30.7998H31.43V22.2498C31.43 19.3998 29.03 16.9998 26.18 16.9998C24.83 16.9998 23.18 17.8998 22.43 19.0998V17.2998H17.93V30.7998H22.43V22.8498C22.43 21.6498 23.48 20.5998 24.68 20.5998C25.88 20.5998 26.93 21.6498 26.93 22.8498V30.7998Z" fill="#A1A3A8"/>
</svg>
