<svg width="21" height="20" viewBox="0 0 21 20" fill="none" xmlns="http://www.w3.org/2000/svg">
<path fill-rule="evenodd" clip-rule="evenodd" d="M3.46332 8.00916C3.46332 4.49249 6.45498 1.66666 10.13 1.66666C13.805 1.66666 16.7967 4.49166 16.7967 8.00916C16.7967 10.3575 15.6092 12.6075 13.6567 14.7042C13.0063 15.3992 12.3061 16.0459 11.5617 16.6392C11.1308 16.9833 10.7925 17.2275 10.59 17.3617L10.13 17.6667L9.66998 17.3617C9.46748 17.2283 9.12832 16.9833 8.69832 16.6392C7.95388 16.0459 7.25369 15.3992 6.60332 14.7042C4.65082 12.6075 3.46332 10.3567 3.46332 8.00832V8.00916ZM10.5217 15.3375C11.175 14.815 11.8292 14.2208 12.4367 13.5675C14.13 11.7508 15.13 9.85582 15.13 8.00916C15.13 5.43416 12.905 3.33332 10.13 3.33332C7.35498 3.33332 5.12998 5.43499 5.12998 8.00916C5.12998 9.85499 6.12998 11.7508 7.82332 13.5675C8.53094 14.3239 9.30271 15.0176 10.13 15.6408C10.2533 15.5483 10.3842 15.4467 10.5217 15.3375ZM10.13 11.6667C9.25884 11.6472 8.42993 11.2874 7.8207 10.6644C7.21148 10.0414 6.87036 9.20469 6.87036 8.33332C6.87036 7.46196 7.21148 6.62521 7.8207 6.00221C8.42993 5.37922 9.25884 5.01947 10.13 4.99999C11.0011 5.01947 11.83 5.37922 12.4393 6.00221C13.0485 6.62521 13.3896 7.46196 13.3896 8.33332C13.3896 9.20469 13.0485 10.0414 12.4393 10.6644C11.83 11.2874 11.0011 11.6472 10.13 11.6667ZM10.13 9.99999C10.5629 9.9863 10.9735 9.8047 11.2749 9.49364C11.5762 9.18257 11.7448 8.76644 11.7448 8.33332C11.7448 7.9002 11.5762 7.48407 11.2749 7.17301C10.9735 6.86194 10.5629 6.68035 10.13 6.66666C9.69708 6.68035 9.28649 6.86194 8.9851 7.17301C8.68372 7.48407 8.5152 7.9002 8.5152 8.33332C8.5152 8.76644 8.68372 9.18257 8.9851 9.49364C9.28649 9.8047 9.69708 9.9863 10.13 9.99999Z" fill="#424750"/>
</svg>
