<svg width="25" height="25" viewBox="0 0 25 25" fill="none" xmlns="http://www.w3.org/2000/svg">
<path fill-rule="evenodd" clip-rule="evenodd" d="M12.665 9.84492C12.887 10.2419 13.075 10.5749 13.131 10.6869C13.492 11.4109 13.65 11.9969 13.65 12.7399C13.65 13.2704 13.4393 13.7791 13.0642 14.1541C12.6892 14.5292 12.1805 14.7399 11.65 14.7399C11.1196 14.7399 10.6109 14.5292 10.2358 14.1541C9.86074 13.7791 9.65002 13.2704 9.65002 12.7399L9.65302 8.18292C9.65302 7.22992 8.44702 6.81592 7.86302 7.56992C5.73702 10.3119 4.65002 12.6459 4.65002 14.6289C4.65002 19.1049 8.22802 22.7399 12.65 22.7399C17.072 22.7399 20.65 19.1049 20.65 14.6289C20.65 11.6609 18.2 7.84892 13.355 3.03092C13.2428 2.91927 13.1057 2.83585 12.955 2.78751C12.8043 2.73918 12.6442 2.72731 12.488 2.75289C12.3318 2.77847 12.1839 2.84076 12.0565 2.93464C11.9291 3.02852 11.8257 3.15132 11.755 3.29292C10.948 4.90792 10.948 6.57292 11.755 8.18692C11.933 8.54292 12.337 9.26292 12.665 9.84492ZM7.65002 12.7399C7.65002 13.8008 8.07145 14.8182 8.8216 15.5683C9.57174 16.3185 10.5892 16.7399 11.65 16.7399C12.7109 16.7399 13.7283 16.3185 14.4785 15.5683C15.2286 14.8182 15.65 13.8008 15.65 12.7399C15.65 11.6619 15.412 10.7779 14.92 9.79292C14.841 9.63692 14.61 9.22392 14.354 8.76892C14.0758 8.28145 13.8058 7.78938 13.544 7.29292C13.271 6.74692 13.14 6.21392 13.151 5.68092C16.83 9.55092 18.65 12.5739 18.65 14.6289C18.65 18.0069 15.96 20.7399 12.65 20.7399C9.34002 20.7399 6.65002 18.0069 6.65002 14.6289C6.65002 13.7589 6.98002 12.7039 7.65002 11.4749V12.7399Z" fill="#F9A825"/>
</svg>
