<svg width="41" height="41" viewBox="0 0 41 41" fill="none" xmlns="http://www.w3.org/2000/svg">
<path d="M35.93 11.5163C34.8072 12.0138 33.6162 12.3402 32.3967 12.4847C33.6804 11.7157 34.6416 10.507 35.1017 9.083C33.8923 9.79861 32.5702 10.3036 31.1917 10.5763C30.2652 9.58616 29.0378 8.92963 27.6999 8.70871C26.362 8.48779 24.9887 8.71486 23.7931 9.35463C22.5975 9.99441 21.6467 11.0111 21.0883 12.2467C20.5299 13.4824 20.3951 14.8679 20.705 16.188C18.2582 16.0653 15.8646 15.4295 13.6796 14.3217C11.4945 13.214 9.56682 11.6591 8.02166 9.758C7.47362 10.6966 7.18595 11.7644 7.18833 12.8513C7.18736 13.8644 7.43667 14.862 7.9141 15.7555C8.39153 16.649 9.08229 17.4107 9.92499 17.973C8.94729 17.9405 7.99142 17.6754 7.13666 17.1997V17.2763C7.13719 18.6973 7.62897 20.0744 8.52867 21.1743C9.42837 22.2741 10.6807 23.0291 12.0733 23.3113C11.5567 23.4497 11.0133 23.528 10.4517 23.528C10.055 23.528 9.66833 23.488 9.29333 23.4113C9.68585 24.6341 10.4508 25.7036 11.4813 26.4702C12.5117 27.2367 13.756 27.6619 15.04 27.6863C12.8601 29.3959 10.1686 30.3228 7.39833 30.318C6.90166 30.318 6.41166 30.288 5.92999 30.233C8.74284 32.0436 12.0181 33.0048 15.3633 33.0013C26.685 33.0013 32.8733 23.6247 32.8733 15.493L32.8517 14.6963C34.0618 13.8314 35.1048 12.7539 35.93 11.5163Z" fill="#A1A3A8"/>
</svg>
